<svg width="460" height="300" viewBox="0 0 460 300" fill="none" xmlns="http://www.w3.org/2000/svg">
<!-- Echo Floor - Isometric Lounge matching reference -->

<!-- Floor base with depth -->
<!-- Right side depth -->
<path d="M410 175V185L210 290V280L410 175Z" fill="#D3CDBC" stroke="#3B382D" stroke-width="0.3" stroke-linecap="round" stroke-linejoin="round"/>
<!-- Left side depth -->
<path d="M10 175V185L210 290V280L10 175Z" fill="#8F8B7E" stroke="#3B382D" stroke-width="0.3" stroke-linecap="round" stroke-linejoin="round"/>
<!-- Front edge depth -->
<path d="M410 175V185L210 290V280L410 175Z" fill="#D3CDBC" stroke="#3B382D" stroke-width="0.3"/>

<!-- Main floor diamond -->
<path d="M210 65L410 175L210 280L10 175L210 65Z" fill="#DCCFBF" stroke="#3B382D" stroke-width="0.3" stroke-linecap="round" stroke-linejoin="round"/>

<!-- Wood floor texture lines (masked to floor shape) -->
<mask id="echoMask" style="mask-type:luminance" maskUnits="userSpaceOnUse" x="10" y="65" width="400" height="215">
<path d="M210 65L410 175L210 280L10 175L210 65Z" fill="white"/>
</mask>
<g mask="url(#echoMask)">
<!-- Diagonal wood grain lines -->
<line x1="-30" y1="260" x2="280" y2="81" stroke="#C4B8A4" stroke-width="0.6"/>
<line x1="-24" y1="264" x2="286" y2="85" stroke="#C4B8A4" stroke-width="0.4"/>
<line x1="-16" y1="269" x2="294" y2="90" stroke="#C4B8A4" stroke-width="0.6"/>
<line x1="-10" y1="273" x2="300" y2="94" stroke="#C4B8A4" stroke-width="0.4"/>
<line x1="-2" y1="278" x2="308" y2="99" stroke="#C4B8A4" stroke-width="0.6"/>
<line x1="4" y1="282" x2="314" y2="103" stroke="#C4B8A4" stroke-width="0.4"/>
<line x1="12" y1="287" x2="322" y2="108" stroke="#C4B8A4" stroke-width="0.6"/>
<line x1="18" y1="291" x2="328" y2="112" stroke="#C4B8A4" stroke-width="0.4"/>
<line x1="26" y1="296" x2="336" y2="117" stroke="#C4B8A4" stroke-width="0.6"/>
<line x1="32" y1="300" x2="342" y2="121" stroke="#C4B8A4" stroke-width="0.4"/>
<line x1="40" y1="305" x2="350" y2="126" stroke="#C4B8A4" stroke-width="0.6"/>
<line x1="46" y1="309" x2="356" y2="130" stroke="#C4B8A4" stroke-width="0.4"/>
<line x1="54" y1="314" x2="364" y2="135" stroke="#C4B8A4" stroke-width="0.6"/>
<line x1="60" y1="318" x2="370" y2="139" stroke="#C4B8A4" stroke-width="0.4"/>
<line x1="68" y1="323" x2="378" y2="144" stroke="#C4B8A4" stroke-width="0.6"/>
<line x1="74" y1="327" x2="384" y2="148" stroke="#C4B8A4" stroke-width="0.4"/>
<line x1="82" y1="332" x2="392" y2="153" stroke="#C4B8A4" stroke-width="0.6"/>
<line x1="88" y1="336" x2="398" y2="157" stroke="#C4B8A4" stroke-width="0.4"/>
<line x1="96" y1="341" x2="406" y2="162" stroke="#C4B8A4" stroke-width="0.6"/>
<line x1="102" y1="345" x2="412" y2="166" stroke="#C4B8A4" stroke-width="0.4"/>
<line x1="110" y1="350" x2="420" y2="171" stroke="#C4B8A4" stroke-width="0.6"/>
<line x1="116" y1="354" x2="426" y2="175" stroke="#C4B8A4" stroke-width="0.4"/>
<line x1="124" y1="359" x2="434" y2="180" stroke="#C4B8A4" stroke-width="0.6"/>
<line x1="130" y1="363" x2="440" y2="184" stroke="#C4B8A4" stroke-width="0.4"/>
<line x1="138" y1="368" x2="448" y2="189" stroke="#C4B8A4" stroke-width="0.6"/>
<line x1="144" y1="372" x2="454" y2="193" stroke="#C4B8A4" stroke-width="0.4"/>
<line x1="152" y1="377" x2="462" y2="198" stroke="#C4B8A4" stroke-width="0.6"/>
<line x1="158" y1="381" x2="468" y2="202" stroke="#C4B8A4" stroke-width="0.4"/>
</g>

<!-- ===== BACK WALL (top-left, behind sofas) ===== -->
<!-- Wall face -->
<path d="M10 175L10 145L210 35L210 65L10 175Z" fill="#E8E0D0" stroke="#3B382D" stroke-width="0.3" stroke-linecap="round" stroke-linejoin="round"/>

<!-- ===== BACK SHELF / CABINET along right wall ===== -->
<!-- Cabinet back panel -->
<path d="M310 108L400 160L400 175L310 123L310 108Z" fill="#7A5C3A" stroke="#3B382D" stroke-width="0.3"/>
<!-- Cabinet top -->
<path d="M310 108L400 160L375 175L285 123L310 108Z" fill="#8B6B45" stroke="#3B382D" stroke-width="0.3"/>
<!-- Cabinet front -->
<path d="M285 123L375 175L375 190L285 138L285 123Z" fill="#6B4E30" stroke="#3B382D" stroke-width="0.3"/>
<!-- Shelf lines -->
<line x1="287" y1="128" x2="377" y2="180" stroke="#8B6B45" stroke-width="0.4"/>
<line x1="287" y1="133" x2="377" y2="185" stroke="#8B6B45" stroke-width="0.4"/>
<!-- Cabinet side -->
<path d="M375 175L400 160L400 175L375 190Z" fill="#5A3F22" stroke="#3B382D" stroke-width="0.3"/>
<!-- Bottles on shelves (small rectangles) -->
<rect x="310" y="112" width="3" height="6" rx="0.5" fill="#C4A870" stroke="#3B382D" stroke-width="0.2"/>
<rect x="316" y="115" width="3" height="6" rx="0.5" fill="#B8976A" stroke="#3B382D" stroke-width="0.2"/>
<rect x="322" y="118" width="3" height="6" rx="0.5" fill="#C4A870" stroke="#3B382D" stroke-width="0.2"/>
<rect x="328" y="121" width="3" height="6" rx="0.5" fill="#D4B880" stroke="#3B382D" stroke-width="0.2"/>
<rect x="334" y="124" width="3" height="6" rx="0.5" fill="#B8976A" stroke="#3B382D" stroke-width="0.2"/>
<rect x="340" y="127" width="3" height="6" rx="0.5" fill="#C4A870" stroke="#3B382D" stroke-width="0.2"/>
<rect x="346" y="130" width="3" height="6" rx="0.5" fill="#D4B880" stroke="#3B382D" stroke-width="0.2"/>
<rect x="352" y="133" width="3" height="6" rx="0.5" fill="#B8976A" stroke="#3B382D" stroke-width="0.2"/>
<rect x="358" y="136" width="3" height="6" rx="0.5" fill="#C4A870" stroke="#3B382D" stroke-width="0.2"/>
<rect x="364" y="139" width="3" height="6" rx="0.5" fill="#D4B880" stroke="#3B382D" stroke-width="0.2"/>
<rect x="370" y="142" width="3" height="6" rx="0.5" fill="#B8976A" stroke="#3B382D" stroke-width="0.2"/>
<rect x="376" y="145" width="3" height="6" rx="0.5" fill="#C4A870" stroke="#3B382D" stroke-width="0.2"/>

<!-- ===== BAR COUNTER (center-right, island style) ===== -->
<!-- Bar top -->
<path d="M270 160L350 206L310 229L230 183L270 160Z" fill="#7A5C3A" stroke="#3B382D" stroke-width="0.3" stroke-linecap="round" stroke-linejoin="round"/>
<!-- Bar front face -->
<path d="M230 183L310 229L310 240L230 194L230 183Z" fill="#6B4E30" stroke="#3B382D" stroke-width="0.3"/>
<!-- Bar right face -->
<path d="M310 229L350 206L350 217L310 240Z" fill="#5A3F22" stroke="#3B382D" stroke-width="0.3"/>
<!-- Bar panel lines (front) -->
<line x1="245" y1="188" x2="295" y2="217" stroke="#7A5C3A" stroke-width="0.4"/>
<line x1="248" y1="190" x2="298" y2="219" stroke="#5A3F22" stroke-width="0.3"/>

<!-- Bar stools (6 along the front of bar) -->
<!-- Stool 1 -->
<ellipse cx="240" cy="192" rx="5" ry="3" fill="#8B6B45" stroke="#3B382D" stroke-width="0.3"/>
<line x1="240" y1="195" x2="240" y2="200" stroke="#5A3F22" stroke-width="0.8"/>
<!-- Stool 2 -->
<ellipse cx="252" cy="199" rx="5" ry="3" fill="#8B6B45" stroke="#3B382D" stroke-width="0.3"/>
<line x1="252" y1="202" x2="252" y2="207" stroke="#5A3F22" stroke-width="0.8"/>
<!-- Stool 3 -->
<ellipse cx="264" cy="206" rx="5" ry="3" fill="#8B6B45" stroke="#3B382D" stroke-width="0.3"/>
<line x1="264" y1="209" x2="264" y2="214" stroke="#5A3F22" stroke-width="0.8"/>
<!-- Stool 4 -->
<ellipse cx="276" cy="213" rx="5" ry="3" fill="#8B6B45" stroke="#3B382D" stroke-width="0.3"/>
<line x1="276" y1="216" x2="276" y2="221" stroke="#5A3F22" stroke-width="0.8"/>
<!-- Stool 5 -->
<ellipse cx="288" cy="220" rx="5" ry="3" fill="#8B6B45" stroke="#3B382D" stroke-width="0.3"/>
<line x1="288" y1="223" x2="288" y2="228" stroke="#5A3F22" stroke-width="0.8"/>
<!-- Stool 6 -->
<ellipse cx="300" cy="227" rx="5" ry="3" fill="#8B6B45" stroke="#3B382D" stroke-width="0.3"/>
<line x1="300" y1="230" x2="300" y2="235" stroke="#5A3F22" stroke-width="0.8"/>

<!-- ===== 3 SOFAS along left wall ===== -->
<!-- Sofa 1 -->
<!-- Back rest (against wall) -->
<path d="M65 145L95 128L100 131L70 148L65 145Z" fill="#E8E0D0" stroke="#3B382D" stroke-width="0.3"/>
<!-- Seat cushion -->
<path d="M70 148L100 131L115 139L85 156L70 148Z" fill="#E8E0D0" stroke="#3B382D" stroke-width="0.3"/>
<!-- Arm rests -->
<path d="M65 145L70 148L85 156L80 153L65 145Z" fill="#D3CDBC" stroke="#3B382D" stroke-width="0.3"/>
<path d="M100 131L115 139L110 142L95 134L100 131Z" fill="#D3CDBC" stroke="#3B382D" stroke-width="0.3"/>
<!-- Sofa side depth -->
<path d="M70 148L70 152L85 160L85 156Z" fill="#C4B8A4" stroke="#3B382D" stroke-width="0.2"/>

<!-- Round table 1 -->
<ellipse cx="96" cy="153" rx="5" ry="3" fill="#8B6B45" stroke="#3B382D" stroke-width="0.3"/>
<line x1="96" y1="153" x2="96" y2="158" stroke="#8B6B45" stroke-width="0.8"/>

<!-- Sofa 2 -->
<path d="M95 162L125 145L130 148L100 165L95 162Z" fill="#E8E0D0" stroke="#3B382D" stroke-width="0.3"/>
<path d="M100 165L130 148L145 156L115 173L100 165Z" fill="#E8E0D0" stroke="#3B382D" stroke-width="0.3"/>
<path d="M95 162L100 165L115 173L110 170L95 162Z" fill="#D3CDBC" stroke="#3B382D" stroke-width="0.3"/>
<path d="M130 148L145 156L140 159L125 151L130 148Z" fill="#D3CDBC" stroke="#3B382D" stroke-width="0.3"/>
<path d="M100 165L100 169L115 177L115 173Z" fill="#C4B8A4" stroke="#3B382D" stroke-width="0.2"/>

<!-- Round table 2 -->
<ellipse cx="126" cy="170" rx="5" ry="3" fill="#8B6B45" stroke="#3B382D" stroke-width="0.3"/>
<line x1="126" y1="170" x2="126" y2="175" stroke="#8B6B45" stroke-width="0.8"/>

<!-- Sofa 3 -->
<path d="M125 179L155 162L160 165L130 182L125 179Z" fill="#E8E0D0" stroke="#3B382D" stroke-width="0.3"/>
<path d="M130 182L160 165L175 173L145 190L130 182Z" fill="#E8E0D0" stroke="#3B382D" stroke-width="0.3"/>
<path d="M125 179L130 182L145 190L140 187L125 179Z" fill="#D3CDBC" stroke="#3B382D" stroke-width="0.3"/>
<path d="M160 165L175 173L170 176L155 168L160 165Z" fill="#D3CDBC" stroke="#3B382D" stroke-width="0.3"/>
<path d="M130 182L130 186L145 194L145 190Z" fill="#C4B8A4" stroke="#3B382D" stroke-width="0.2"/>

<!-- Round table 3 -->
<ellipse cx="156" cy="187" rx="5" ry="3" fill="#8B6B45" stroke="#3B382D" stroke-width="0.3"/>
<line x1="156" y1="187" x2="156" y2="192" stroke="#8B6B45" stroke-width="0.8"/>

<!-- ===== SPEAKER STACKS ===== -->
<!-- Speaker 1 (left corner) -->
<rect x="28" y="158" width="10" height="18" rx="1" fill="#2A2622" stroke="#3B382D" stroke-width="0.3"/>
<circle cx="33" cy="163" r="3" fill="#3B382D" stroke="#4A4640" stroke-width="0.3"/>
<circle cx="33" cy="170" r="2" fill="#3B382D" stroke="#4A4640" stroke-width="0.3"/>
<circle cx="33" cy="160" r="1" fill="#4A7A4A"/>

<!-- Speaker 2 (near bar) -->
<rect x="215" y="115" width="10" height="18" rx="1" fill="#2A2622" stroke="#3B382D" stroke-width="0.3"/>
<circle cx="220" cy="120" r="3" fill="#3B382D" stroke="#4A4640" stroke-width="0.3"/>
<circle cx="220" cy="127" r="2" fill="#3B382D" stroke="#4A4640" stroke-width="0.3"/>
<circle cx="220" cy="117" r="1" fill="#4A7A4A"/>

</svg>
