<svg width="21" height="21" viewBox="0 0 21 21" fill="none" xmlns="http://www.w3.org/2000/svg">
<path d="M12.6348 18.8521C15.2352 18.1397 17.4276 16.1651 18.4625 13.6771C20.5307 8.70623 17.877 3.00854 12.7539 1.48712L13.0961 0.386719C14.1175 0.708622 15.0907 1.17623 15.9668 1.79039C19.3175 4.13774 20.9523 8.31571 20.0711 12.3463C19.2837 15.9474 16.5185 18.9656 12.96 19.9398L12.6348 18.8521Z" fill="white"/>
<path d="M10.6771 15.668L10.6475 20.3059H9.52051L9.55008 15.668H10.6771Z" fill="white"/>
<path d="M6.01769 6.39488L6.00586 6.48044L5.35364 7.33772L1.63379 4.59307L2.29784 3.6875L6.01769 6.39488Z" fill="white"/>
<path d="M4.74399 8.94797L0.358398 7.51889L0.682819 6.42188L5.04306 7.86366L5.06756 7.94499L4.74399 8.94797Z" fill="white"/>
<path d="M4.74582 11.2969L5.07024 12.3532L5.0432 12.382L0.65339 13.795L0.328125 12.6963L4.74582 11.2969Z" fill="white"/>
<path d="M8.98655 4.72559L7.98626 5.04919L7.90431 5.02462L6.52637 0.624708L7.59256 0.296875L8.98655 4.72559Z" fill="white"/>
<path d="M4.67157 1.57812L7.38436 5.33847L6.48038 6.00599L3.76927 2.27106C3.76082 2.22617 3.82926 2.18466 3.85798 2.15925C4.09369 1.9534 4.42825 1.78652 4.67157 1.57812Z" fill="white"/>
<path d="M4.62688 18.6739L3.78288 18.0783L3.71191 17.9809L6.44583 14.2773C6.68154 14.4866 7.02962 14.6577 7.25097 14.8695C7.27716 14.894 7.32531 14.9161 7.31433 14.9593L4.62604 18.6747L4.62688 18.6739Z" fill="white"/>
<path d="M8.92516 15.5552L7.50413 19.9823L6.46582 19.6409L7.86235 15.2266L8.92516 15.5552Z" fill="white"/>
<path d="M5.3009 12.9383C5.33638 12.929 5.36088 12.9315 5.382 12.9645C5.5138 13.2331 5.86272 13.5423 5.97677 13.7973C5.98691 13.8193 6.00127 13.8345 5.97677 13.8566L2.22313 16.519L1.61399 15.6685L1.6123 15.6101L5.30005 12.9383H5.3009Z" fill="white"/>
<path d="M4.62721 9.54297V10.7027L0 10.673V9.54297H4.62721Z" fill="white"/>
<path d="M10.7364 0V4.6388H9.62458L9.60938 0H10.7364Z" fill="white"/>
</svg>
