<svg width="22" height="22" viewBox="0 0 22 22" fill="none" xmlns="http://www.w3.org/2000/svg">
<path d="M10.4499 9.01914C13.485 8.3951 14.0183 12.6686 11.4336 13.1085C8.61408 13.5881 8.07246 9.50788 10.4499 9.01914Z" fill="white"/>
<path d="M11.6337 0.0170567V5.08116H10.3662V0.190094C10.6702 -0.137572 11.2219 0.0695201 11.6337 0.0170567Z" fill="white"/>
<path d="M0 11.6415V10.375H4.89577L5.05052 10.5655C5.08276 10.7109 5.07631 10.8601 5.07631 11.0082C5.07631 11.2439 5.115 11.4951 4.89669 11.6415H0Z" fill="white"/>
<path d="M21.9998 10.375H17.0469V11.6415H21.9998V10.375Z" fill="white"/>
<path d="M9.67705 16.8202L8.17746 21.6542L7.03711 21.297L8.46669 16.7033L8.68684 16.5938L9.67705 16.8202Z" fill="white"/>
<path d="M8.28833 0.480469L9.68107 5.0227L9.56132 5.25372L8.58769 5.54365L7.04297 0.875325L8.28833 0.480469Z" fill="white"/>
<path d="M14.9755 0.70781L13.4759 5.54181L12.4396 5.25464L12.3447 4.9371L13.7651 0.589998L13.9862 0.480469L14.9755 0.70781Z" fill="white"/>
<path d="M17.9684 2.43661L15.0908 6.52599L14.1016 5.88907L16.8299 1.87055C17.1265 1.69752 17.6405 2.4182 17.9684 2.43569V2.43661Z" fill="white"/>
<path d="M5.17788 12.3359L5.40264 13.4708L0.692011 14.9784L0.361328 13.977L0.458046 13.7709L5.17788 12.3359Z" fill="white"/>
<path d="M16.5918 13.4764C16.5393 13.4046 16.799 12.2909 17.0975 12.3332L21.4617 13.7332C21.8587 13.8694 21.4194 14.9785 21.1605 14.9619L16.5918 13.4754V13.4764Z" fill="white"/>
<path d="M5.87087 14.0625L6.40328 15.097L2.47745 17.9715L1.77832 16.9342L5.87087 14.0625Z" fill="white"/>
<path d="M2.42028 4.04297L6.39585 6.91925C6.59205 7.08585 5.98226 7.84979 5.87449 7.90869C5.61105 8.05136 2.25263 5.33983 1.72852 5.02137L2.42028 4.04297Z" fill="white"/>
<path d="M19.5241 4.04688L20.2223 5.08234C18.976 5.82235 17.7344 7.12841 16.5093 7.82516C16.384 7.89603 16.2836 8.00832 16.1252 7.908C16.0349 7.85093 15.4739 7.08791 15.5992 6.92224L19.5232 4.04688H19.5241Z" fill="white"/>
<path d="M16.2987 14.0781L20.1665 16.8734L20.2632 17.0915L19.5263 17.8583L15.6033 15.097C15.4669 14.889 16.132 14.2272 16.2978 14.0781H16.2987Z" fill="white"/>
<path d="M7.94793 16.1327L5.06574 20.2736L4.08105 19.5851L6.84995 15.6596L7.06273 15.5703L7.94793 16.1327Z" fill="white"/>
<path d="M15.1893 15.5704L17.9527 19.4315L17.1044 20.2681L14.1816 16.2027C14.341 16.0149 14.9572 15.4378 15.1893 15.5704Z" fill="white"/>
<path d="M21.3079 7.03516L21.6377 8.03748L21.5409 8.24366L16.8211 9.67858L16.5908 8.53727L21.3079 7.03516Z" fill="white"/>
<path d="M13.5881 16.5933L15.0867 21.2533L13.9906 21.6509L12.3418 16.989C12.3565 16.8353 13.4812 16.5012 13.5881 16.5942V16.5933Z" fill="white"/>
<path d="M5.16895 1.8753L7.93877 5.73182L6.96883 6.57676L4.16309 2.5067C4.32152 2.31893 4.93867 1.74184 5.16987 1.8753H5.16895Z" fill="white"/>
<path d="M5.39895 8.54831L5.19538 9.61691L5.01392 9.69238L0.361328 8.13413L0.750042 7.03516L5.39895 8.54831Z" fill="white"/>
<path d="M11.5176 17.0508H10.3662V21.9998H11.5176V17.0508Z" fill="white"/>
</svg>
