<svg width="22" height="22" viewBox="0 0 22 22" fill="none" xmlns="http://www.w3.org/2000/svg">
<path d="M12.0732 0.179784C12.2968 0.428834 12.2397 0.828927 12.235 1.14645C12.1927 2.42728 12.0644 3.73564 12.0335 5.02385C12.0335 5.46422 12.1954 5.59177 12.4042 5.14872C12.9428 3.88534 13.4209 2.59041 13.9534 1.31562C14.0877 0.992723 14.3033 0.622167 14.6982 0.650362C14.9681 0.663116 15.2602 0.83094 15.363 1.06791C15.4771 1.33173 15.3704 1.64321 15.2757 1.90636C14.8513 3.03145 14.4275 4.15318 13.9957 5.27022C13.942 5.42797 13.8144 5.70992 13.8991 5.85022C14.0589 5.95091 14.2771 5.6542 14.3933 5.53874C15.136 4.65397 15.8599 3.72691 16.6006 2.84214C16.7759 2.63538 16.9706 2.41654 17.2231 2.31518C17.7832 2.06948 18.4084 2.69244 18.1686 3.25499C17.534 4.36128 16.5617 5.27425 15.7961 6.30267C14.4504 8.23265 19.0973 4.42841 19.5795 4.65867C20.5834 4.68216 20.5734 5.82605 19.8206 6.27112C19.6937 6.48392 15.6658 8.54749 17.25 8.41054C18.1948 8.20378 19.1282 7.91043 20.0684 7.6795C20.6848 7.4385 21.7526 7.56404 21.6807 8.41793C21.6082 8.91938 21.1106 9.22214 20.6493 9.33223C19.7313 9.60478 18.7327 9.73836 17.8443 10.1049C17.4393 10.368 18.0746 10.4956 18.2955 10.4895C19.0416 10.5432 19.8011 10.5808 20.5485 10.6131C20.981 10.6325 21.4558 10.6903 21.766 11.0219C22.1098 11.3488 22.0662 11.8785 21.6915 12.1611C20.9145 12.7954 19.2055 12.2114 18.217 12.2859C17.6374 12.3114 17.8114 12.6437 18.2109 12.8069C19.0356 13.1841 19.9663 13.3761 20.758 13.8339C21.6028 14.377 21.4175 15.5102 20.3363 15.5175C19.274 15.4712 18.3875 14.6536 17.346 14.5227C16.3978 14.6697 19.3787 16.3768 19.4761 16.8501C20.108 17.8651 19.0396 18.6612 18.1095 18.0396C17.7274 17.9107 15.915 15.9264 15.7458 16.4782C15.6967 16.7749 16.0815 17.226 16.2474 17.5039C16.7436 18.2732 17.9598 19.6453 16.7671 20.3281C15.5194 20.6979 14.9372 18.725 14.3194 17.9577C14.2039 17.806 14.0119 17.4777 13.7963 17.5462C13.5713 17.7771 13.8574 18.382 13.9145 18.7055C14.1133 19.6219 14.9198 21.2276 13.6754 21.6706C13.0046 21.7734 12.5782 21.0678 12.46 20.4919C12.2975 19.8286 12.1282 19.1667 11.965 18.5028C11.9288 18.2819 11.6729 17.6039 11.4621 18.0685C11.2781 18.9069 11.3634 19.8071 11.2667 20.659C11.2512 21.1538 11.0766 21.7264 10.5924 21.9398C10.0055 22.199 9.48443 21.5706 9.45689 21.0175C9.41123 20.0125 9.62142 19.0002 9.64291 17.9926C9.50659 15.9928 8.25553 20.5758 7.94595 20.8027C7.56453 21.4431 6.61902 21.482 6.42091 20.6758C6.34167 20.3697 6.44375 20.0555 6.55388 19.7662C6.92456 18.7921 7.34091 17.8141 7.70018 16.834C7.87007 16.1956 7.41948 16.4876 7.19653 16.7856C6.39271 17.6684 5.75073 18.7418 4.83409 19.5111C4.35664 19.8528 3.6334 19.497 3.64146 18.9036C3.6428 18.5733 3.85904 18.286 4.05982 18.0336C4.74277 17.1998 5.44183 16.3533 6.13216 15.5108C6.22684 15.3786 6.44442 15.1363 6.37122 14.9825C6.24162 14.8731 5.97301 15.0624 5.83333 15.1376C4.89655 15.727 3.94298 16.3197 2.99411 16.9192C2.73557 17.079 2.43473 17.2488 2.12649 17.1971C1.54092 17.0985 1.31327 16.2963 1.79812 15.921C2.88599 15.0966 4.11354 14.4301 5.23903 13.6621C5.8528 13.2566 5.60165 13.1029 5.01406 13.264C3.74891 13.5681 2.49113 13.9011 1.22396 14.1931C0.657862 14.3629 0.18645 13.94 0.288522 13.3479C0.350974 13.0056 0.710241 12.8767 1.0131 12.7907C2.29773 12.435 3.60386 12.0933 4.89185 11.7415C5.02011 11.6912 5.40086 11.618 5.34647 11.4482C5.25044 11.3367 4.96571 11.3267 4.80589 11.3112C3.51924 11.2253 2.21379 11.0863 0.928488 11.0085C0.615556 10.9843 0.202566 10.9675 0.0622169 10.6466C-0.130512 10.1942 0.137428 9.62961 0.687409 9.67258C2.14597 9.71957 3.61729 9.78804 5.06711 9.87195C5.28738 9.89813 5.92868 9.87397 5.47809 9.59404C4.12966 8.97174 2.71139 8.45418 1.35625 7.86881C1.08764 7.7567 0.727701 7.62378 0.70957 7.29619C0.69211 6.83769 1.06145 6.36309 1.56308 6.57589C2.99545 7.08742 4.42983 7.66272 5.82997 8.17156C6.30273 8.35818 6.55455 8.28568 6.09187 7.87082C5.00265 6.91422 3.87918 6.01066 2.79198 5.0742C2.60798 4.91376 2.381 4.72177 2.35011 4.47608C2.32124 4.22837 2.49852 3.9773 2.70334 3.83969C3.21706 3.53223 3.70391 4.25791 4.11153 4.49823C5.17456 5.2917 6.16036 6.20601 7.25092 6.94443C7.62631 7.09145 7.31203 6.57992 7.22809 6.44297C6.4921 5.23733 5.7373 4.01423 4.9966 2.79784C4.64875 2.32055 4.65614 1.85467 5.28738 1.64187C5.61441 1.53177 5.8434 1.79828 6.00591 2.04934C6.89837 3.33756 7.69816 4.7117 8.6383 5.96165C8.91631 6.22682 8.86058 5.78712 8.81894 5.61124C8.48318 4.19212 8.13331 2.77501 7.79016 1.35589C7.72435 1.0867 7.65183 0.747028 7.87142 0.542283C8.34887 0.157631 8.89147 0.314043 9.01301 0.951102C9.45286 2.41453 9.7799 3.94038 10.2788 5.38501C10.5119 5.77503 10.5663 5.10709 10.5783 4.9339C10.6979 3.5705 10.7529 2.18562 10.8772 0.827584C10.9007 0.58189 10.9376 0.285177 11.1337 0.128765C11.3721 -0.0598691 11.8435 -0.0383876 12.0651 0.174413L12.0718 0.181797L12.0732 0.179784Z" fill="white"/>
</svg>
