<svg width="441" height="326" viewBox="0 0 441 326" fill="none" xmlns="http://www.w3.org/2000/svg">
<g clip-path="url(#clip0_462_1236)">
<path d="M187.23 48.3594L92.9404 102.799L70.3604 89.7694L5.19043 127.389L35.0504 157.599L54.7104 168.959L71.7704 178.809L26.2204 205.109L66.1304 228.149L56.3504 233.969L211.28 323.419L437.31 192.739L187.23 48.3594Z" fill="#FFFBEC" stroke="#3B382D" stroke-width="0.3" stroke-linecap="round" stroke-linejoin="round"/>
<path d="M290.241 222.047L264.021 206.907L268.391 204.387L293.661 222.047H290.241Z" fill="#D3CDBC"/>
<path d="M321.85 237.119L250.61 195.989L321.85 154.859L393.09 195.989L321.85 237.119Z" fill="#D3CDBC"/>
<path d="M316.7 134.118L331.21 142.498H338.61L324.1 134.118V129.848L316.7 134.118Z" fill="#D3CDBC"/>
<path d="M393.66 178.537L363.11 160.907L370.51 156.637V160.907L388.56 171.317L393.66 178.537Z" fill="#D3CDBC"/>
<path d="M83.5508 102.547L90.6108 106.617H98.0108L90.9508 102.547V101.897L87.7208 100.117L83.5508 102.547Z" fill="#D3CDBC"/>
<path d="M183.53 57.2377L185.94 58.6277H193.34L187.24 55.0977L183.53 57.2377Z" fill="#D3CDBC"/>
<path d="M245.61 88.8091H238.21L220.32 78.4791L228.87 73.5391L245.61 88.8091Z" fill="#D3CDBC"/>
<path d="M344.45 90.918V139.128L338.61 142.498V94.288L344.45 90.918Z" fill="#D3CDBC" stroke="#3B382D" stroke-width="0.3" stroke-linecap="round" stroke-linejoin="round"/>
<path d="M251.45 37.2266V85.4366L245.61 88.8066V40.5966L251.45 37.2266Z" fill="#D3CDBC" stroke="#3B382D" stroke-width="0.3" stroke-linecap="round" stroke-linejoin="round"/>
<path d="M199.181 7.04688V55.2469L193.341 58.6269V10.4169L199.181 7.04688Z" fill="#D3CDBC" stroke="#3B382D" stroke-width="0.3" stroke-linecap="round" stroke-linejoin="round"/>
<path d="M370.51 112.698L338.61 94.2884L324.1 85.9084L245.61 40.5984L227.72 30.2684L193.34 10.4184L187.24 6.89844V55.0984L193.34 58.6284V17.5284L227.72 37.3784V78.4784L245.61 88.8084V51.3884L324.1 96.7084V134.118L338.61 142.498V101.398L370.51 119.818V160.908L387.02 170.438L392.85 167.068L428.76 146.338L370.51 112.698Z" fill="#8F8B7E" stroke="#3B382D" stroke-width="0.3" stroke-linecap="round" stroke-linejoin="round"/>
<path d="M281.121 264.657C277.501 266.747 271.631 266.747 268.021 264.657C264.401 262.567 264.401 259.177 268.021 257.087C271.641 254.997 277.511 254.997 281.121 257.087C284.731 259.177 284.741 262.567 281.121 264.657Z" stroke="#3B382D" stroke-width="0.3" stroke-linecap="round" stroke-linejoin="round"/>
<path d="M71.0601 206.669C67.4401 208.759 61.5701 208.759 57.9601 206.669C54.3401 204.579 54.3401 201.189 57.9601 199.099C61.5801 197.009 67.4501 197.009 71.0601 199.099C74.6801 201.189 74.6801 204.579 71.0601 206.669Z" stroke="#3B382D" stroke-width="0.3" stroke-linecap="round" stroke-linejoin="round"/>
<path d="M248.93 283.247C245.31 285.337 239.44 285.337 235.83 283.247C232.22 281.157 232.21 277.767 235.83 275.677C239.45 273.587 245.32 273.587 248.93 275.677C252.55 277.767 252.55 281.157 248.93 283.247Z" stroke="#3B382D" stroke-width="0.3" stroke-linecap="round" stroke-linejoin="round"/>
<path d="M175.221 13.827V62.037L169.381 58.667V10.457L175.221 13.827Z" fill="#D3CDBC" stroke="#3B382D" stroke-width="0.3" stroke-linecap="round" stroke-linejoin="round"/>
<path d="M185.23 244.407H176.25L176.9 237.027L185.23 244.407Z" fill="#D3CDBC"/>
<path d="M192.56 191.758V239.968L185.23 244.198V195.988L192.56 191.758Z" fill="#D3CDBC" stroke="#3B382D" stroke-width="0.3" stroke-linecap="round" stroke-linejoin="round"/>
<path d="M185.23 195.987V244.197L171.46 236.237V188.027L185.23 195.987Z" fill="#8F8B7E" stroke="#3B382D" stroke-width="0.3" stroke-linecap="round" stroke-linejoin="round"/>
<path d="M192.56 191.757L185.23 195.987L171.46 188.027L178.79 183.797L192.56 191.757Z" fill="#FFFBEC" stroke="#3B382D" stroke-width="0.3" stroke-linecap="round" stroke-linejoin="round"/>
<path d="M169.77 258.598H163.59L153.44 252.738L160.77 248.508L169.77 258.598Z" fill="#D3CDBC"/>
<path d="M177.09 205.93V254.14L169.771 258.37V210.16L177.09 205.93Z" fill="#D3CDBC" stroke="#3B382D" stroke-width="0.3" stroke-linecap="round" stroke-linejoin="round"/>
<path d="M169.77 210.157V258.367L159.62 252.507V204.297L169.77 210.157Z" fill="#8F8B7E" stroke="#3B382D" stroke-width="0.3" stroke-linecap="round" stroke-linejoin="round"/>
<path d="M177.09 205.93L169.77 210.16L159.62 204.3L166.95 200.07L177.09 205.93Z" fill="#FFFBEC" stroke="#3B382D" stroke-width="0.3" stroke-linecap="round" stroke-linejoin="round"/>
<path d="M151.23 215.617V263.827L143.9 268.057V219.847L151.23 215.617Z" fill="#D3CDBC" stroke="#3B382D" stroke-width="0.3" stroke-linecap="round" stroke-linejoin="round"/>
<path d="M143.901 219.849V268.059L135.011 262.929V214.719L143.901 219.849Z" fill="#8F8B7E" stroke="#3B382D" stroke-width="0.3" stroke-linecap="round" stroke-linejoin="round"/>
<path d="M151.231 215.618L143.901 219.848L135.011 214.718L142.341 210.488L151.231 215.618Z" fill="#FFFBEC" stroke="#3B382D" stroke-width="0.3" stroke-linecap="round" stroke-linejoin="round"/>
<path d="M153.28 135.238L144.9 130.398L138.7 133.978L147.08 138.818H153.28L151.63 136.188L153.28 135.238Z" fill="#D3CDBC"/>
<path d="M159.48 86.75V134.96L153.28 138.54V90.33L159.48 86.75Z" fill="#D3CDBC" stroke="#3B382D" stroke-width="0.3" stroke-linecap="round" stroke-linejoin="round"/>
<path d="M153.28 90.3283V138.538L144.9 133.698V85.4883L153.28 90.3283Z" fill="#8F8B7E" stroke="#3B382D" stroke-width="0.3" stroke-linecap="round" stroke-linejoin="round"/>
<path d="M159.48 86.7502L153.28 90.3302L144.9 85.4902L151.1 81.9102L159.48 86.7502Z" fill="#FFFBEC" stroke="#3B382D" stroke-width="0.3" stroke-linecap="round" stroke-linejoin="round"/>
<path d="M241.301 186.008L232.921 181.168L226.721 184.748L235.101 189.588H241.301L239.651 186.958L241.301 186.008Z" fill="#D3CDBC"/>
<path d="M247.501 137.559V185.769L241.301 189.349V141.139L247.501 137.559Z" fill="#D3CDBC" stroke="#3B382D" stroke-width="0.3" stroke-linecap="round" stroke-linejoin="round"/>
<path d="M241.3 141.137V189.347L232.91 184.507V136.297L241.3 141.137Z" fill="#8F8B7E" stroke="#3B382D" stroke-width="0.3" stroke-linecap="round" stroke-linejoin="round"/>
<path d="M247.5 137.559L241.3 141.139L232.91 136.299L239.11 132.719L247.5 137.559Z" fill="#FFFBEC" stroke="#3B382D" stroke-width="0.3" stroke-linecap="round" stroke-linejoin="round"/>
<path d="M85.7005 34.9297V48.3597L75.9006 42.4197L74.3105 41.5097L85.7005 34.9297Z" fill="#D3CDBC" stroke="#3B382D" stroke-width="0.3" stroke-linecap="round" stroke-linejoin="round"/>
<path d="M75.9006 42.418V90.628L73.1006 92.248V44.038L75.9006 42.418Z" fill="#D3CDBC" stroke="#3B382D" stroke-width="0.3" stroke-linecap="round" stroke-linejoin="round"/>
<path d="M93.7507 55.9572L92.1707 55.0372L90.9507 54.3372L73.1007 44.0372L71.5107 43.1172V91.3272L73.1007 92.2472V51.1472L90.9507 61.4472V102.547L92.1707 103.247L93.7507 104.167L98.0107 106.617V58.4072L93.7507 55.9572Z" fill="#8F8B7E" stroke="#3B382D" stroke-width="0.3" stroke-linecap="round" stroke-linejoin="round"/>
<path d="M71.5102 43.1172V91.3272L40.8902 109.007V106.017L37.6402 104.137L32.4702 101.157L10.4102 78.3972L71.5102 43.1172Z" fill="#D3CDBC" stroke="#3B382D" stroke-width="0.3" stroke-linecap="round" stroke-linejoin="round"/>
<path d="M25.8204 104.058V152.268L0.150391 125.788V77.5781L25.8204 104.058Z" fill="#8F8B7E" stroke="#3B382D" stroke-width="0.3" stroke-linecap="round" stroke-linejoin="round"/>
<path d="M35.0503 109.399V157.599L25.8203 152.269V104.059L31.8003 107.519L35.0503 109.399Z" fill="#8F8B7E" stroke="#3B382D" stroke-width="0.3" stroke-linecap="round" stroke-linejoin="round"/>
<path d="M40.8908 106.02V154.23L35.0508 157.6V109.4L40.8908 106.02Z" fill="#D3CDBC" stroke="#3B382D" stroke-width="0.3" stroke-linecap="round" stroke-linejoin="round"/>
<path d="M175.221 13.8284L126.371 42.0384L98.0107 58.4084V106.618L126.371 90.2384V49.1384L175.221 20.9384V62.0384L187.241 55.0984V6.89844L175.221 13.8284Z" fill="#D3CDBC" stroke="#3B382D" stroke-width="0.3" stroke-linecap="round" stroke-linejoin="round"/>
<path d="M121.11 95.6172V143.827L80.5302 167.257V128.907L71.9902 123.977L121.11 95.6172Z" fill="#D3CDBC" stroke="#3B382D" stroke-width="0.3" stroke-linecap="round" stroke-linejoin="round"/>
<path d="M75.7504 135.05V183.26L69.9004 179.89V131.68L75.7504 135.05Z" fill="#8F8B7E" stroke="#3B382D" stroke-width="0.3" stroke-linecap="round" stroke-linejoin="round"/>
<path d="M71.77 130.6L69.9 131.68V177.73L60.6 172.36L60.31 172.19L54.71 168.96V120.75L60.31 123.98L60.6 124.15L71.77 130.6Z" fill="#D3CDBC" stroke="#3B382D" stroke-width="0.3" stroke-linecap="round" stroke-linejoin="round"/>
<path d="M85.11 177.449V225.659L77.79 229.889V181.679L85.11 177.449Z" fill="#D3CDBC" stroke="#3B382D" stroke-width="0.3" stroke-linecap="round" stroke-linejoin="round"/>
<path d="M77.7902 181.678V229.888L73.1602 227.218V179.008L77.7902 181.678Z" fill="#8F8B7E" stroke="#3B382D" stroke-width="0.3" stroke-linecap="round" stroke-linejoin="round"/>
<path d="M73.1604 179.008V227.218L69.1604 229.528V187.628L63.6904 184.468L69.1204 181.338L73.1604 179.008Z" fill="#D3CDBC" stroke="#3B382D" stroke-width="0.3" stroke-linecap="round" stroke-linejoin="round"/>
<path d="M69.1601 187.629V235.839L64.3701 238.599V190.389L69.1601 187.629Z" fill="#D3CDBC" stroke="#3B382D" stroke-width="0.3" stroke-linecap="round" stroke-linejoin="round"/>
<path d="M58.9002 187.238V235.448L47.4902 242.038V193.828L58.9002 187.238Z" fill="#D3CDBC" stroke="#3B382D" stroke-width="0.3" stroke-linecap="round" stroke-linejoin="round"/>
<path d="M47.4903 193.828V242.038L44.7803 240.468V192.258L47.4903 193.828Z" fill="#8F8B7E" stroke="#3B382D" stroke-width="0.3" stroke-linecap="round" stroke-linejoin="round"/>
<mask id="mask0_462_1236" style="mask-type:luminance" maskUnits="userSpaceOnUse" x="10" y="43" width="125" height="126">
<path d="M71.5102 43.1172L10.4102 78.3972L32.4702 101.157L40.8902 106.017V151.907L43.7102 153.537V162.597L54.7102 168.957V120.747L58.1702 118.747L63.7702 121.987L134.85 80.9472L71.5102 43.1172Z" fill="white"/>
</mask>
<g mask="url(#mask0_462_1236)">
<path d="M32.1797 101.058L37.2997 98.0977L61.2697 111.938L56.1497 114.898L32.1797 101.058Z" fill="#FFFBEC" stroke="#3B382D" stroke-width="0.3" stroke-linecap="round" stroke-linejoin="round"/>
<path d="M37.2998 94.0967L42.4198 91.1367L66.3898 104.977L61.2698 107.937L37.2998 94.0967Z" fill="#FFFBEC" stroke="#3B382D" stroke-width="0.3" stroke-linecap="round" stroke-linejoin="round"/>
<path d="M42.4199 87.1375L47.5399 84.1875L71.5099 98.0275L66.3899 100.978L42.4199 87.1375Z" fill="#FFFBEC" stroke="#3B382D" stroke-width="0.3" stroke-linecap="round" stroke-linejoin="round"/>
<path d="M95.48 80.1877L71.51 94.0277L47.54 80.1877L71.51 66.3477L95.48 80.1877Z" fill="#FFFBEC" stroke="#3B382D" stroke-width="0.3" stroke-linecap="round" stroke-linejoin="round"/>
<path d="M76.6298 92.9775L71.5098 90.0275L95.4798 76.1875L100.6 79.1375L76.6298 92.9775Z" fill="#FFFBEC" stroke="#3B382D" stroke-width="0.3" stroke-linecap="round" stroke-linejoin="round"/>
<path d="M81.7499 91.9367L76.6299 88.9767L100.6 75.1367L105.72 78.0967L81.7499 91.9367Z" fill="#FFFBEC" stroke="#3B382D" stroke-width="0.3" stroke-linecap="round" stroke-linejoin="round"/>
<path d="M86.88 90.8977L81.75 87.9377L105.72 74.0977L110.85 77.0577L86.88 90.8977Z" fill="#FFFBEC" stroke="#3B382D" stroke-width="0.3" stroke-linecap="round" stroke-linejoin="round"/>
<path d="M43.1998 147.098L37.2998 143.688L61.2698 129.848L67.1698 133.258L43.1998 147.098Z" fill="#FFFBEC" stroke="#3B382D" stroke-width="0.3" stroke-linecap="round" stroke-linejoin="round"/>
<path d="M37.2997 139.688L32.1797 136.738L56.1397 122.898L61.2697 125.848L37.2997 139.688Z" fill="#FFFBEC" stroke="#3B382D" stroke-width="0.3" stroke-linecap="round" stroke-linejoin="round"/>
<path d="M56.14 118.899L32.18 132.739L8.20996 118.899L32.17 105.059L56.14 118.899Z" fill="#FFFBEC" stroke="#3B382D" stroke-width="0.3" stroke-linecap="round" stroke-linejoin="round"/>
<path d="M47.54 80.1875V84.1875L71.51 98.0275V94.0275L47.54 80.1875Z" fill="#8F8B7E" stroke="#3B382D" stroke-width="0.3" stroke-linecap="round" stroke-linejoin="round"/>
<path d="M42.4199 87.1367V91.1367L66.3899 104.977V100.977L42.4199 87.1367Z" fill="#8F8B7E" stroke="#3B382D" stroke-width="0.3" stroke-linecap="round" stroke-linejoin="round"/>
<path d="M37.2998 94.0977V98.0977L61.2698 111.938V107.938L37.2998 94.0977Z" fill="#8F8B7E" stroke="#3B382D" stroke-width="0.3" stroke-linecap="round" stroke-linejoin="round"/>
<path d="M32.1799 101.059L32.1699 105.059L56.1399 118.899L56.1499 114.899L32.1799 101.059Z" fill="#8F8B7E" stroke="#3B382D" stroke-width="0.3" stroke-linecap="round" stroke-linejoin="round"/>
<path d="M32.1797 132.738V136.738L56.1397 122.898V118.898L32.1797 132.738Z" fill="#8F8B7E" stroke="#3B382D" stroke-width="0.3" stroke-linecap="round" stroke-linejoin="round"/>
<path d="M37.2998 139.688V143.688L61.2698 129.848V125.848L37.2998 139.688Z" fill="#8F8B7E" stroke="#3B382D" stroke-width="0.3" stroke-linecap="round" stroke-linejoin="round"/>
<path d="M71.5098 90.0273V94.0273L74.9698 92.0273L71.5098 90.0273Z" fill="#8F8B7E" stroke="#3B382D" stroke-width="0.3" stroke-linecap="round" stroke-linejoin="round"/>
<path d="M76.6299 92.9766V88.9766L80.0999 90.9766L76.6299 92.9766Z" fill="#8F8B7E" stroke="#3B382D" stroke-width="0.3" stroke-linecap="round" stroke-linejoin="round"/>
<path d="M81.75 91.9375V87.9375L85.22 89.9375L81.75 91.9375Z" fill="#8F8B7E" stroke="#3B382D" stroke-width="0.3" stroke-linecap="round" stroke-linejoin="round"/>
</g>
<path d="M40.8906 106.02V151.91" stroke="#3B382D" stroke-width="0.3" stroke-linecap="round" stroke-linejoin="round"/>
<path d="M54.71 120.75V168.96" stroke="#3B382D" stroke-width="0.3" stroke-linecap="round" stroke-linejoin="round"/>
<path d="M329.06 229.541L257.82 188.411L329.06 147.281L400.3 188.411L329.06 229.541Z" fill="#FFFBEC" stroke="#3B382D" stroke-width="0.3" stroke-linecap="round" stroke-linejoin="round"/>
<path d="M327.41 151.108C327.41 150.738 327.17 150.368 326.69 150.088L326.48 149.148L322.53 151.458C322.64 151.698 322.84 151.928 323.17 152.118C323.66 152.398 324.29 152.538 324.93 152.538H329.03L327.41 151.118V151.108Z" fill="#D3CDBC"/>
<path d="M264.63 190.141H260.94L258.42 188.411L262.79 185.891L264.63 190.141Z" fill="#D3CDBC"/>
<path d="M257.82 188.41V196.01L329.06 237.14V229.54L257.82 188.41Z" fill="#8F8B7E" stroke="#3B382D" stroke-width="0.3" stroke-linecap="round" stroke-linejoin="round"/>
<path d="M330.721 128.47C329.751 129.03 328.181 129.03 327.211 128.47C326.241 127.91 326.241 127 327.211 126.44C328.181 125.88 329.751 125.88 330.721 126.44C331.691 127 331.691 127.91 330.721 128.47Z" fill="#FFFBEC" stroke="#3B382D" stroke-width="0.3" stroke-linecap="round" stroke-linejoin="round"/>
<path d="M327.21 128.471C326.73 128.191 326.48 127.821 326.48 127.461V150.791C326.48 151.161 326.72 151.521 327.21 151.801C327.61 152.031 328.11 152.141 328.62 152.181V128.851C328.11 128.811 327.6 128.701 327.21 128.471Z" fill="#8F8B7E"/>
<path d="M330.72 128.471C330.15 128.801 329.37 128.911 328.62 128.851V152.181C329.37 152.241 330.15 152.131 330.72 151.801C331.2 151.521 331.45 151.151 331.45 150.791V127.461C331.45 127.831 331.21 128.191 330.72 128.471Z" fill="#D3CDBC"/>
<path d="M330.72 128.471C329.75 129.031 328.18 129.031 327.21 128.471C326.73 128.191 326.48 127.821 326.48 127.461V150.791C326.48 151.161 326.72 151.521 327.21 151.801C328.18 152.361 329.75 152.361 330.72 151.801C331.2 151.521 331.45 151.151 331.45 150.791V127.461C331.45 127.831 331.21 128.191 330.72 128.471Z" stroke="#3B382D" stroke-width="0.3" stroke-linecap="round" stroke-linejoin="round"/>
<path d="M328.96 200.06L271.95 167.15L328.96 134.23L385.97 167.15L328.96 200.06Z" stroke="#3B382D" stroke-width="0.3" stroke-linecap="round" stroke-linejoin="round"/>
<path d="M328.96 204.951L271.95 172.041L328.96 139.121L385.97 172.041L328.96 204.951Z" stroke="#3B382D" stroke-width="0.3" stroke-linecap="round" stroke-linejoin="round"/>
<path d="M328.96 209.842L271.95 176.932L328.96 144.012L385.97 176.932L328.96 209.842Z" stroke="#3B382D" stroke-width="0.3" stroke-linecap="round" stroke-linejoin="round"/>
<path d="M385.97 181.82L328.96 214.73L271.95 181.82" stroke="#3B382D" stroke-width="0.3" stroke-linecap="round" stroke-linejoin="round"/>
<path d="M400.301 188.41V196.01L329.061 237.14V229.54L400.301 188.41Z" stroke="#3B382D" stroke-width="0.3" stroke-linecap="round" stroke-linejoin="round"/>
<path d="M266.551 166.098C265.581 166.658 264.011 166.658 263.041 166.098C262.071 165.538 262.071 164.628 263.041 164.068C264.011 163.508 265.581 163.508 266.551 164.068C267.521 164.628 267.521 165.538 266.551 166.098Z" fill="#FFFBEC" stroke="#3B382D" stroke-width="0.3" stroke-linecap="round" stroke-linejoin="round"/>
<path d="M263.041 166.1C262.561 165.82 262.311 165.45 262.311 165.09V188.42C262.311 188.79 262.551 189.15 263.041 189.43C263.441 189.66 263.941 189.77 264.451 189.81V166.48C263.941 166.44 263.431 166.33 263.041 166.1Z" fill="#8F8B7E"/>
<path d="M266.55 166.1C265.98 166.43 265.2 166.54 264.45 166.48V189.81C265.2 189.87 265.98 189.76 266.55 189.43C267.03 189.15 267.28 188.78 267.28 188.42V165.09C267.28 165.46 267.04 165.82 266.55 166.1Z" fill="#D3CDBC"/>
<path d="M266.551 166.1C265.581 166.66 264.011 166.66 263.041 166.1C262.561 165.82 262.311 165.45 262.311 165.09V188.42C262.311 188.79 262.551 189.15 263.041 189.43C264.011 189.99 265.581 189.99 266.551 189.43C267.031 189.15 267.281 188.78 267.281 188.42V165.09C267.281 165.46 267.041 165.82 266.551 166.1Z" stroke="#3B382D" stroke-width="0.3" stroke-linecap="round" stroke-linejoin="round"/>
<path d="M271.95 167.148V181.818" stroke="#3B382D" stroke-width="0.3" stroke-linecap="round" stroke-linejoin="round"/>
<path d="M328.96 134.23V147.28" stroke="#3B382D" stroke-width="0.3" stroke-linecap="round" stroke-linejoin="round"/>
<path d="M385.971 167.148V181.818" stroke="#3B382D" stroke-width="0.3" stroke-linecap="round" stroke-linejoin="round"/>
<path d="M267.28 168.891H271.95" stroke="#3B382D" stroke-width="0.3" stroke-linecap="round" stroke-linejoin="round"/>
<path d="M267.28 179.551H271.95" stroke="#3B382D" stroke-width="0.3" stroke-linecap="round" stroke-linejoin="round"/>
<path d="M385.971 168.891H390.651" stroke="#3B382D" stroke-width="0.3" stroke-linecap="round" stroke-linejoin="round"/>
<path d="M385.971 179.551H390.651" stroke="#3B382D" stroke-width="0.3" stroke-linecap="round" stroke-linejoin="round"/>
<path d="M330.811 201.118C329.841 201.678 328.271 201.678 327.301 201.118C326.331 200.558 326.331 199.648 327.301 199.088C328.271 198.528 329.841 198.528 330.811 199.088C331.781 199.648 331.781 200.558 330.811 201.118Z" fill="#FFFBEC" stroke="#3B382D" stroke-width="0.3" stroke-linecap="round" stroke-linejoin="round"/>
<path d="M327.3 201.119C326.82 200.839 326.57 200.469 326.57 200.109V223.439C326.57 223.809 326.81 224.169 327.3 224.449C327.7 224.679 328.2 224.789 328.71 224.829V201.499C328.2 201.459 327.69 201.349 327.3 201.119Z" fill="#8F8B7E"/>
<path d="M330.81 201.119C330.24 201.449 329.46 201.559 328.71 201.499V224.829C329.46 224.889 330.24 224.779 330.81 224.449C331.29 224.169 331.54 223.799 331.54 223.439V200.109C331.54 200.479 331.3 200.839 330.81 201.119Z" fill="#D3CDBC"/>
<path d="M330.81 201.119C329.84 201.679 328.27 201.679 327.3 201.119C326.82 200.839 326.57 200.469 326.57 200.109V223.439C326.57 223.809 326.81 224.169 327.3 224.449C328.27 225.009 329.84 225.009 330.81 224.449C331.29 224.169 331.54 223.799 331.54 223.439V200.109C331.54 200.479 331.3 200.839 330.81 201.119Z" stroke="#3B382D" stroke-width="0.3" stroke-linecap="round" stroke-linejoin="round"/>
<path d="M394.891 166.278C393.921 166.838 392.351 166.838 391.381 166.278C390.411 165.718 390.411 164.808 391.381 164.248C392.351 163.688 393.921 163.688 394.891 164.248C395.861 164.808 395.861 165.718 394.891 166.278Z" fill="#FFFBEC" stroke="#3B382D" stroke-width="0.3" stroke-linecap="round" stroke-linejoin="round"/>
<path d="M391.38 166.28C390.9 166 390.65 165.63 390.65 165.27V188.6C390.65 188.97 390.89 189.33 391.38 189.61C391.78 189.84 392.28 189.95 392.79 189.99V166.66C392.28 166.62 391.77 166.51 391.38 166.28Z" fill="#8F8B7E"/>
<path d="M394.89 166.28C394.32 166.61 393.54 166.72 392.79 166.66V189.99C393.54 190.05 394.32 189.94 394.89 189.61C395.37 189.33 395.62 188.96 395.62 188.6V165.27C395.62 165.64 395.38 166 394.89 166.28Z" fill="#D3CDBC"/>
<path d="M394.89 166.28C393.92 166.84 392.35 166.84 391.38 166.28C390.9 166 390.65 165.63 390.65 165.27V188.6C390.65 188.97 390.89 189.33 391.38 189.61C392.35 190.17 393.92 190.17 394.89 189.61C395.37 189.33 395.62 188.96 395.62 188.6V165.27C395.62 165.64 395.38 166 394.89 166.28Z" stroke="#3B382D" stroke-width="0.3" stroke-linecap="round" stroke-linejoin="round"/>
<path d="M293.66 218.668L267.44 203.538L271.81 201.008L298.02 216.148L293.66 218.668Z" fill="#FFFBEC" stroke="#3B382D" stroke-width="0.3" stroke-linecap="round" stroke-linejoin="round"/>
<path d="M267.44 203.539V206.609L293.66 221.739V218.669L267.44 203.539Z" fill="#8F8B7E" stroke="#3B382D" stroke-width="0.3" stroke-linecap="round" stroke-linejoin="round"/>
<path d="M298.02 216.148V219.218L293.66 221.738V218.668L298.02 216.148Z" fill="#D3CDBC" stroke="#3B382D" stroke-width="0.3" stroke-linecap="round" stroke-linejoin="round"/>
<path d="M170.84 171.639C168.69 172.879 165.21 172.879 163.07 171.639C160.93 170.399 160.92 168.389 163.07 167.149C165.22 165.909 168.7 165.909 170.84 167.149C172.99 168.389 172.99 170.399 170.84 171.639Z" fill="#D3CDBC"/>
<path d="M167.18 138.168V167.598C168.51 167.568 169.83 167.268 170.84 166.678C171.91 166.058 172.45 165.248 172.45 164.438V138.168H167.18Z" fill="#D3CDBC"/>
<path d="M164.28 138.168V167.188C164.74 167.338 165.22 167.448 165.73 167.518V138.168H164.28Z" fill="#D3CDBC"/>
<path d="M161.46 138.168V164.438C161.46 165.248 162 166.058 163.07 166.678C163.44 166.888 163.85 167.048 164.28 167.188V138.168H161.46Z" fill="#8F8B7E"/>
<path d="M165.729 138.168V167.518C166.209 167.578 166.689 167.608 167.179 167.598V138.168H165.729Z" fill="#8F8B7E"/>
<path d="M161.46 138.168V164.438C161.46 165.248 162 166.058 163.07 166.678C165.22 167.918 168.7 167.918 170.84 166.678C171.91 166.058 172.45 165.248 172.45 164.438V138.168H161.46Z" stroke="#3B382D" stroke-width="0.3" stroke-linecap="round" stroke-linejoin="round"/>
<path d="M170.84 140.408C168.69 141.648 165.21 141.648 163.07 140.408C160.93 139.168 160.92 137.158 163.07 135.918C165.22 134.678 168.7 134.678 170.84 135.918C172.98 137.158 172.99 139.168 170.84 140.408Z" fill="#FFFBEC" stroke="#3B382D" stroke-width="0.3" stroke-linecap="round" stroke-linejoin="round"/>
<path d="M166.95 131.227L163.07 135.927" stroke="#3B382D" stroke-width="0.3" stroke-linecap="round" stroke-linejoin="round"/>
<path d="M166.95 131.225V121.855" stroke="#3B382D" stroke-width="0.3" stroke-miterlimit="10"/>
<path d="M168.67 121.447C167.72 121.997 166.18 121.997 165.24 121.447C164.3 120.897 164.29 120.017 165.24 119.467C166.19 118.917 167.73 118.917 168.67 119.467C169.61 120.017 169.62 120.897 168.67 121.447Z" stroke="#3B382D" stroke-width="0.3" stroke-linecap="round" stroke-linejoin="round"/>
<path d="M166.95 131.227L171.1 136.087" stroke="#3B382D" stroke-width="0.3" stroke-linecap="round" stroke-linejoin="round"/>
<path d="M166.95 131.227L165.64 141.107" stroke="#3B382D" stroke-width="0.3" stroke-linecap="round" stroke-linejoin="round"/>
<path d="M203.48 179.799C201.33 181.039 197.85 181.039 195.71 179.799C193.56 178.559 193.56 176.549 195.71 175.309C197.86 174.069 201.34 174.069 203.48 175.309C205.62 176.549 205.63 178.559 203.48 179.799Z" fill="#D3CDBC"/>
<path d="M199.82 146.5V175.93C201.15 175.9 202.47 175.6 203.48 175.01C204.55 174.39 205.09 173.58 205.09 172.77V146.5H199.82Z" fill="#D3CDBC"/>
<path d="M196.921 146.5V175.52C197.381 175.67 197.861 175.78 198.371 175.85V146.5H196.921Z" fill="#D3CDBC"/>
<path d="M194.101 146.5V172.77C194.101 173.58 194.641 174.39 195.711 175.01C196.081 175.22 196.491 175.38 196.921 175.52V146.5H194.101Z" fill="#8F8B7E"/>
<path d="M198.37 146.5V175.85C198.85 175.91 199.33 175.94 199.82 175.93V146.5H198.37Z" fill="#8F8B7E"/>
<path d="M194.101 146.5V172.77C194.101 173.58 194.641 174.39 195.711 175.01C197.861 176.25 201.341 176.25 203.481 175.01C204.551 174.39 205.091 173.58 205.091 172.77V146.5H194.101Z" stroke="#3B382D" stroke-width="0.3" stroke-linecap="round" stroke-linejoin="round"/>
<path d="M203.48 148.748C201.33 149.988 197.85 149.988 195.71 148.748C193.57 147.508 193.56 145.498 195.71 144.258C197.86 143.018 201.34 143.018 203.48 144.258C205.62 145.498 205.63 147.508 203.48 148.748Z" fill="#FFFBEC" stroke="#3B382D" stroke-width="0.3" stroke-linecap="round" stroke-linejoin="round"/>
<path d="M199.59 139.559L195.71 144.259" stroke="#3B382D" stroke-width="0.3" stroke-linecap="round" stroke-linejoin="round"/>
<path d="M199.59 139.557V130.188" stroke="#3B382D" stroke-width="0.3" stroke-miterlimit="10"/>
<path d="M201.311 129.779C200.361 130.329 198.821 130.329 197.881 129.779C196.941 129.229 196.931 128.349 197.881 127.799C198.831 127.249 200.371 127.249 201.311 127.799C202.251 128.349 202.261 129.229 201.311 129.779Z" stroke="#3B382D" stroke-width="0.3" stroke-linecap="round" stroke-linejoin="round"/>
<path d="M199.59 139.559L203.74 144.429" stroke="#3B382D" stroke-width="0.3" stroke-linecap="round" stroke-linejoin="round"/>
<path d="M199.59 139.559L198.28 149.439" stroke="#3B382D" stroke-width="0.3" stroke-linecap="round" stroke-linejoin="round"/>
<path d="M231.011 220.58C228.861 221.82 225.381 221.82 223.241 220.58C221.101 219.34 221.091 217.33 223.241 216.09C225.391 214.85 228.871 214.85 231.011 216.09C233.151 217.33 233.161 219.34 231.011 220.58Z" fill="#D3CDBC"/>
<path d="M227.351 187.098V216.528C228.681 216.498 230.001 216.198 231.011 215.608C232.081 214.988 232.621 214.178 232.621 213.368V187.098H227.351Z" fill="#D3CDBC"/>
<path d="M224.451 187.098V216.118C224.911 216.268 225.391 216.378 225.901 216.448V187.098H224.451Z" fill="#D3CDBC"/>
<path d="M221.631 187.098V213.368C221.631 214.178 222.171 214.988 223.241 215.608C223.611 215.818 224.021 215.978 224.451 216.118V187.098H221.631Z" fill="#8F8B7E"/>
<path d="M225.9 187.098V216.448C226.38 216.508 226.86 216.538 227.35 216.528V187.098H225.9Z" fill="#8F8B7E"/>
<path d="M221.631 187.098V213.368C221.631 214.178 222.171 214.988 223.241 215.608C225.391 216.848 228.871 216.848 231.011 215.608C232.081 214.988 232.621 214.178 232.621 213.368V187.098H221.631Z" stroke="#3B382D" stroke-width="0.3" stroke-linecap="round" stroke-linejoin="round"/>
<path d="M231.011 189.338C228.861 190.578 225.381 190.578 223.241 189.338C221.101 188.098 221.091 186.088 223.241 184.848C225.391 183.608 228.871 183.608 231.011 184.848C233.151 186.088 233.161 188.098 231.011 189.338Z" fill="#FFFBEC" stroke="#3B382D" stroke-width="0.3" stroke-linecap="round" stroke-linejoin="round"/>
<path d="M227.121 180.16L223.241 184.86" stroke="#3B382D" stroke-width="0.3" stroke-linecap="round" stroke-linejoin="round"/>
<path d="M227.121 180.157V170.777" stroke="#3B382D" stroke-width="0.3" stroke-miterlimit="10"/>
<path d="M228.841 170.369C227.891 170.919 226.351 170.919 225.411 170.369C224.471 169.819 224.461 168.939 225.411 168.389C226.361 167.839 227.901 167.839 228.841 168.389C229.781 168.939 229.791 169.819 228.841 170.369Z" stroke="#3B382D" stroke-width="0.3" stroke-linecap="round" stroke-linejoin="round"/>
<path d="M227.121 180.16L231.271 185.02" stroke="#3B382D" stroke-width="0.3" stroke-linecap="round" stroke-linejoin="round"/>
<path d="M227.121 180.16L225.811 190.04" stroke="#3B382D" stroke-width="0.3" stroke-linecap="round" stroke-linejoin="round"/>
<path d="M261.811 230.578V260.008C263.141 259.978 264.461 259.678 265.471 259.088C266.541 258.468 267.081 257.658 267.081 256.848V230.578H261.811Z" fill="#D3CDBC"/>
<path d="M258.921 230.578V259.598C259.381 259.748 259.861 259.858 260.371 259.928V230.578H258.921Z" fill="#D3CDBC"/>
<path d="M256.101 230.578V256.848C256.101 257.658 256.641 258.468 257.711 259.088C258.081 259.298 258.491 259.458 258.921 259.598V230.578H256.101Z" fill="#8F8B7E"/>
<path d="M260.37 230.578V259.928C260.85 259.988 261.33 260.018 261.82 260.008V230.578H260.37Z" fill="#8F8B7E"/>
<path d="M256.101 230.578V256.848C256.101 257.658 256.641 258.468 257.711 259.088C259.861 260.328 263.341 260.328 265.481 259.088C266.551 258.468 267.091 257.658 267.091 256.848V230.578H256.101Z" stroke="#3B382D" stroke-width="0.3" stroke-linecap="round" stroke-linejoin="round"/>
<path d="M265.48 232.818C263.33 234.058 259.85 234.058 257.71 232.818C255.57 231.578 255.56 229.568 257.71 228.328C259.86 227.088 263.34 227.088 265.48 228.328C267.62 229.568 267.63 231.578 265.48 232.818Z" fill="#FFFBEC" stroke="#3B382D" stroke-width="0.3" stroke-linecap="round" stroke-linejoin="round"/>
<path d="M261.591 223.641L257.711 228.331" stroke="#3B382D" stroke-width="0.3" stroke-linecap="round" stroke-linejoin="round"/>
<path d="M261.591 223.638V214.258" stroke="#3B382D" stroke-width="0.3" stroke-miterlimit="10"/>
<path d="M263.311 213.85C262.361 214.4 260.821 214.4 259.881 213.85C258.941 213.3 258.931 212.42 259.881 211.87C260.831 211.32 262.371 211.32 263.311 211.87C264.251 212.42 264.261 213.3 263.311 213.85Z" stroke="#3B382D" stroke-width="0.3" stroke-linecap="round" stroke-linejoin="round"/>
<path d="M261.591 223.641L265.741 228.501" stroke="#3B382D" stroke-width="0.3" stroke-linecap="round" stroke-linejoin="round"/>
<path d="M261.59 223.641L260.28 233.521" stroke="#3B382D" stroke-width="0.3" stroke-linecap="round" stroke-linejoin="round"/>
<path d="M233.33 249.008V278.438C234.66 278.408 235.98 278.108 236.99 277.518C238.06 276.898 238.6 276.088 238.6 275.278V249.008H233.33Z" fill="#D3CDBC"/>
<path d="M230.431 249.008V278.028C230.891 278.178 231.371 278.288 231.881 278.358V249.008H230.431Z" fill="#D3CDBC"/>
<path d="M227.61 249.008V275.278C227.61 276.088 228.15 276.898 229.22 277.518C229.59 277.728 230 277.888 230.43 278.028V249.008H227.61Z" fill="#8F8B7E"/>
<path d="M231.88 249.008V278.358C232.36 278.418 232.84 278.448 233.33 278.438V249.008H231.88Z" fill="#8F8B7E"/>
<path d="M227.61 249.008V275.278C227.61 276.088 228.15 276.898 229.22 277.518C231.37 278.758 234.85 278.758 236.99 277.518C238.06 276.898 238.6 276.088 238.6 275.278V249.008H227.61Z" stroke="#3B382D" stroke-width="0.3" stroke-linecap="round" stroke-linejoin="round"/>
<path d="M236.99 251.248C234.84 252.488 231.36 252.488 229.22 251.248C227.08 250.008 227.07 247.998 229.22 246.758C231.37 245.518 234.85 245.518 236.99 246.758C239.13 247.998 239.14 250.008 236.99 251.248Z" fill="#FFFBEC" stroke="#3B382D" stroke-width="0.3" stroke-linecap="round" stroke-linejoin="round"/>
<path d="M233.111 242.07L229.221 246.76" stroke="#3B382D" stroke-width="0.3" stroke-linecap="round" stroke-linejoin="round"/>
<path d="M233.11 242.068V232.688" stroke="#3B382D" stroke-width="0.3" stroke-miterlimit="10"/>
<path d="M234.82 232.279C233.87 232.829 232.33 232.829 231.39 232.279C230.45 231.729 230.44 230.849 231.39 230.299C232.34 229.749 233.88 229.749 234.82 230.299C235.76 230.849 235.77 231.729 234.82 232.279Z" stroke="#3B382D" stroke-width="0.3" stroke-linecap="round" stroke-linejoin="round"/>
<path d="M233.11 242.07L237.26 246.93" stroke="#3B382D" stroke-width="0.3" stroke-linecap="round" stroke-linejoin="round"/>
<path d="M233.11 242.07L231.79 251.95" stroke="#3B382D" stroke-width="0.3" stroke-linecap="round" stroke-linejoin="round"/>
<path d="M196.48 268.949V298.379C197.81 298.349 199.13 298.049 200.14 297.459C201.21 296.839 201.75 296.029 201.75 295.219V268.949H196.48Z" fill="#D3CDBC"/>
<path d="M193.591 268.949V297.969C194.051 298.119 194.531 298.229 195.041 298.299V268.949H193.591Z" fill="#D3CDBC"/>
<path d="M190.761 268.949V295.219C190.761 296.029 191.301 296.839 192.371 297.459C192.741 297.669 193.151 297.829 193.581 297.969V268.949H190.761Z" fill="#8F8B7E"/>
<path d="M195.03 268.949V298.299C195.51 298.359 195.99 298.389 196.48 298.379V268.949H195.03Z" fill="#8F8B7E"/>
<path d="M190.761 268.949V295.219C190.761 296.029 191.301 296.839 192.371 297.459C194.521 298.699 198.001 298.699 200.141 297.459C201.211 296.839 201.751 296.029 201.751 295.219V268.949H190.761Z" stroke="#3B382D" stroke-width="0.3" stroke-linecap="round" stroke-linejoin="round"/>
<path d="M200.151 271.197C198.001 272.437 194.521 272.437 192.381 271.197C190.241 269.957 190.231 267.947 192.381 266.707C194.531 265.467 198.011 265.467 200.151 266.707C202.291 267.947 202.301 269.957 200.151 271.197Z" fill="#FFFBEC" stroke="#3B382D" stroke-width="0.3" stroke-linecap="round" stroke-linejoin="round"/>
<path d="M196.261 262.008L192.371 266.708" stroke="#3B382D" stroke-width="0.3" stroke-linecap="round" stroke-linejoin="round"/>
<path d="M196.261 262.007V252.637" stroke="#3B382D" stroke-width="0.3" stroke-miterlimit="10"/>
<path d="M197.981 252.228C197.031 252.778 195.491 252.778 194.551 252.228C193.611 251.678 193.601 250.798 194.551 250.248C195.501 249.698 197.041 249.698 197.981 250.248C198.921 250.798 198.931 251.678 197.981 252.228Z" stroke="#3B382D" stroke-width="0.3" stroke-linecap="round" stroke-linejoin="round"/>
<path d="M196.261 262.008L200.411 266.878" stroke="#3B382D" stroke-width="0.3" stroke-linecap="round" stroke-linejoin="round"/>
<path d="M196.26 262.008L194.94 271.888" stroke="#3B382D" stroke-width="0.3" stroke-linecap="round" stroke-linejoin="round"/>
<path d="M440.441 146.34V194.55L214.261 325.14V276.93L392.851 173.81L398.691 170.44L440.441 146.34Z" fill="#D3CDBC" stroke="#3B382D" stroke-width="0.3" stroke-linecap="round" stroke-linejoin="round"/>
<path d="M205.11 271.648L64.3704 190.388L62.4604 189.288L58.9004 187.238V235.448L64.3704 238.598L205.11 319.858L214.26 325.138V276.928L205.11 271.648ZM64.3704 219.138V197.388L205.11 278.638V300.398L64.3704 219.148V219.138Z" fill="#8F8B7E" stroke="#3B382D" stroke-width="0.3" stroke-linecap="round" stroke-linejoin="round"/>
<path d="M78.0105 133.748L77.6205 133.968L75.7505 135.048L43.7105 153.538L32.0605 160.268V168.048L46.8205 163.258L75.7505 146.558V163.888L61.8305 171.918L66.9505 174.898L73.8205 170.928L75.7505 172.038L83.4605 176.488V130.598L78.0105 133.748Z" fill="#D3CDBC" stroke="#3B382D" stroke-width="0.3" stroke-linecap="round" stroke-linejoin="round"/>
<path d="M64.3701 219.137L69.1601 216.367L205.11 294.857V300.387L64.3701 219.137Z" fill="#FFFBEC" stroke="#3B382D" stroke-width="0.3" stroke-linecap="round" stroke-linejoin="round"/>
<path d="M62.4607 177.488L32.0607 160.268L26.2207 156.898V205.108L32.0607 208.478V208.568L44.7807 215.818V196.458L32.0607 189.108V171.778L56.1607 185.688L62.4607 182.058L66.4107 179.778L62.4607 177.488Z" fill="#8F8B7E" stroke="#3B382D" stroke-width="0.3" stroke-linecap="round" stroke-linejoin="round"/>
<path d="M32.0605 189.11L36.8505 186.34L45.9405 191.59L44.7805 192.26V196.46L32.0605 189.11Z" fill="#FFFBEC" stroke="#3B382D" stroke-width="0.3" stroke-linecap="round" stroke-linejoin="round"/>
<path d="M36.8505 186.337V174.537L32.0605 171.777V189.107L36.8505 186.337Z" fill="#D3CDBC" stroke="#3B382D" stroke-width="0.3" stroke-linecap="round" stroke-linejoin="round"/>
<path d="M75.7502 163.89L69.9002 160.52L55.9902 168.55L61.8302 171.92L75.7502 163.89Z" fill="#FFFBEC" stroke="#3B382D" stroke-width="0.3" stroke-linecap="round" stroke-linejoin="round"/>
<path d="M376.34 109.328L344.45 90.9184L329.94 82.5384L251.45 37.2284L233.56 26.8984L199.18 7.04844L187.24 0.148438L169.38 10.4584L120.54 38.6584L94.9604 53.4284L93.7504 52.7284L75.9004 42.4184L74.3104 41.5084L85.7004 34.9284L79.8604 31.5584L0.150391 77.5784L25.8204 104.058L31.8004 107.518L35.0504 109.398L40.8904 106.018L37.6404 104.138L32.4704 101.158L10.4104 78.3984L71.5104 43.1184L73.1004 44.0384L90.9504 54.3384L92.1704 55.0384L93.7504 55.9584L98.0104 58.4084L126.37 42.0384L175.22 13.8284L187.24 6.89844L193.34 10.4184L227.72 30.2684L245.61 40.5984L324.1 85.9084L338.61 94.2884L370.51 112.698L428.76 146.338L392.85 167.068L387.02 170.438L214.26 270.188L210.95 268.278L69.1604 187.628L63.6904 184.468L69.1204 181.338L73.1604 179.008L77.7904 181.678L85.1104 177.448L73.8204 170.928L69.1204 173.648L66.9504 174.898L66.9704 174.888L36.8504 157.498L75.7504 135.048L83.4604 130.598L71.9904 123.978L121.11 95.6184L115.27 92.2484L63.7704 121.988L58.1704 118.748L54.7104 120.748L60.3104 123.978L60.6004 124.148L71.7704 130.598L69.9004 131.678L26.2204 156.898L32.0604 160.268L62.4604 177.488L66.4104 179.778L62.4604 182.058L44.7804 192.258L47.4904 193.828L58.9004 187.238L62.4604 189.288L64.3704 190.388L205.11 271.648L214.26 276.928L392.85 173.808L398.69 170.438L440.44 146.338L376.34 109.328Z" fill="#FFFBEC" stroke="#3B382D" stroke-width="0.3" stroke-linecap="round" stroke-linejoin="round"/>
<path d="M249.03 53.3594V86.8394L324.1 130.179" stroke="#3B382D" stroke-width="0.3" stroke-linecap="round" stroke-linejoin="round"/>
<path d="M227.72 74.5383L196.75 56.6583V19.4883" stroke="#3B382D" stroke-width="0.3" stroke-linecap="round" stroke-linejoin="round"/>
<path d="M126.37 86.3084L171.81 60.0684V22.8984L126.37 49.1384V86.3084Z" stroke="#3B382D" stroke-width="0.3" stroke-linecap="round" stroke-linejoin="round"/>
<path d="M150.61 71.4183V35.7383" stroke="white" stroke-width="0.3" stroke-linecap="round" stroke-linejoin="round"/>
<path d="M148.091 56.418V59.958" stroke="white" stroke-width="0.3" stroke-linecap="round" stroke-linejoin="round"/>
<path d="M153.051 53.5586V57.0986" stroke="white" stroke-width="0.3" stroke-linecap="round" stroke-linejoin="round"/>
<path d="M341.53 103.078V140.758" stroke="#3B382D" stroke-width="0.3" stroke-linecap="round" stroke-linejoin="round"/>
<path d="M135.16 165.998C133.01 167.238 129.53 167.238 127.39 165.998C125.25 164.758 125.24 162.748 127.39 161.508C129.54 160.268 133.02 160.268 135.16 161.508C137.3 162.748 137.31 164.758 135.16 165.998Z" fill="#D3CDBC"/>
<path d="M131.5 132.398V161.828C132.83 161.798 134.15 161.498 135.16 160.908C136.23 160.288 136.77 159.478 136.77 158.668V132.398H131.5Z" fill="#D3CDBC"/>
<path d="M128.61 132.398V161.418C129.07 161.568 129.55 161.678 130.06 161.748V132.398H128.61Z" fill="#D3CDBC"/>
<path d="M125.78 132.398V158.668C125.78 159.478 126.32 160.288 127.39 160.908C127.76 161.118 128.17 161.278 128.6 161.418V132.398H125.78Z" fill="#8F8B7E"/>
<path d="M130.05 132.398V161.748C130.53 161.808 131.01 161.838 131.5 161.828V132.398H130.05Z" fill="#8F8B7E"/>
<path d="M125.78 132.398V158.668C125.78 159.478 126.32 160.288 127.39 160.908C129.54 162.148 133.02 162.148 135.16 160.908C136.23 160.288 136.77 159.478 136.77 158.668V132.398H125.78Z" stroke="#3B382D" stroke-width="0.3" stroke-linecap="round" stroke-linejoin="round"/>
<path d="M135.16 134.639C133.01 135.879 129.53 135.879 127.39 134.639C125.25 133.399 125.24 131.389 127.39 130.149C129.54 128.909 133.02 128.909 135.16 130.149C137.3 131.389 137.31 133.399 135.16 134.639Z" fill="#FFFBEC" stroke="#3B382D" stroke-width="0.3" stroke-linecap="round" stroke-linejoin="round"/>
<path d="M131.281 125.461L127.391 130.161" stroke="#3B382D" stroke-width="0.3" stroke-linecap="round" stroke-linejoin="round"/>
<path d="M131.28 125.458V116.078" stroke="#3B382D" stroke-width="0.3" stroke-miterlimit="10"/>
<path d="M133 115.67C132.05 116.22 130.51 116.22 129.57 115.67C128.63 115.12 128.62 114.24 129.57 113.69C130.52 113.14 132.06 113.14 133 113.69C133.94 114.24 133.95 115.12 133 115.67Z" stroke="#3B382D" stroke-width="0.3" stroke-linecap="round" stroke-linejoin="round"/>
<path d="M131.28 125.461L135.43 130.321" stroke="#3B382D" stroke-width="0.3" stroke-linecap="round" stroke-linejoin="round"/>
<path d="M131.28 125.461L129.96 135.341" stroke="#3B382D" stroke-width="0.3" stroke-linecap="round" stroke-linejoin="round"/>
<path d="M101.901 180.717C99.7512 181.957 96.2712 181.957 94.1312 180.717C91.9912 179.477 91.9812 177.467 94.1312 176.227C96.2812 174.987 99.7612 174.987 101.901 176.227C104.041 177.467 104.051 179.477 101.901 180.717Z" fill="#D3CDBC"/>
<path d="M98.2305 147.207V176.637C99.5605 176.607 100.88 176.307 101.89 175.717C102.96 175.097 103.5 174.287 103.5 173.477V147.207H98.2305Z" fill="#D3CDBC"/>
<path d="M95.3408 147.207V176.227C95.8008 176.377 96.2808 176.487 96.7908 176.557V147.207H95.3408Z" fill="#D3CDBC"/>
<path d="M92.5107 147.207V173.477C92.5107 174.287 93.0507 175.097 94.1207 175.717C94.4907 175.927 94.9007 176.087 95.3307 176.227V147.207H92.5107Z" fill="#8F8B7E"/>
<path d="M96.7803 147.207V176.557C97.2603 176.617 97.7403 176.647 98.2303 176.637V147.207H96.7803Z" fill="#8F8B7E"/>
<path d="M92.5107 147.207V173.477C92.5107 174.287 93.0507 175.097 94.1207 175.717C96.2707 176.957 99.7507 176.957 101.891 175.717C102.961 175.097 103.501 174.287 103.501 173.477V147.207H92.5107Z" stroke="#3B382D" stroke-width="0.3" stroke-linecap="round" stroke-linejoin="round"/>
<path d="M101.901 149.447C99.7512 150.687 96.2712 150.687 94.1312 149.447C91.9912 148.207 91.9812 146.197 94.1312 144.957C96.2812 143.717 99.7612 143.717 101.901 144.957C104.041 146.197 104.051 148.207 101.901 149.447Z" fill="#FFFBEC" stroke="#3B382D" stroke-width="0.3" stroke-linecap="round" stroke-linejoin="round"/>
<path d="M98.0111 140.27L94.1211 144.96" stroke="#3B382D" stroke-width="0.3" stroke-linecap="round" stroke-linejoin="round"/>
<path d="M98.0107 140.267V130.887" stroke="#3B382D" stroke-width="0.3" stroke-miterlimit="10"/>
<path d="M99.7306 130.478C98.7806 131.028 97.2406 131.028 96.3006 130.478C95.3606 129.928 95.3506 129.048 96.3006 128.498C97.2506 127.948 98.7906 127.948 99.7306 128.498C100.671 129.048 100.681 129.928 99.7306 130.478Z" stroke="#3B382D" stroke-width="0.3" stroke-linecap="round" stroke-linejoin="round"/>
<path d="M98.0107 140.27L102.161 145.13" stroke="#3B382D" stroke-width="0.3" stroke-linecap="round" stroke-linejoin="round"/>
<path d="M98.0104 140.27L96.6904 150.14" stroke="#3B382D" stroke-width="0.3" stroke-linecap="round" stroke-linejoin="round"/>
<path d="M329.06 147.281L271.95 180.651" stroke="#3B382D" stroke-width="0.3" stroke-linecap="round" stroke-linejoin="round"/>
<path d="M36.8496 174.539V186.339L45.9396 191.589L56.1596 185.689L36.8496 174.539Z" fill="#D3CDBC" stroke="#3B382D" stroke-width="0.3" stroke-linecap="round" stroke-linejoin="round"/>
<path d="M169.38 58.6719L175.22 62.0419H167.82L165.97 60.9719L169.38 58.6719Z" fill="#D3CDBC"/>
</g>
<defs>
<clipPath id="clip0_462_1236">
<rect width="440.59" height="325.29" fill="white"/>
</clipPath>
</defs>
</svg>
